<svg width="31" height="30" viewBox="0 0 31 30" fill="none" xmlns="http://www.w3.org/2000/svg">
<path d="M24.0375 11.8C23.9228 11.6304 23.7683 11.4915 23.5874 11.3956C23.4064 11.2997 23.2048 11.2497 23 11.25H19.25V8.75H22C22.3315 8.75 22.6495 8.6183 22.8839 8.38388C23.1183 8.14946 23.25 7.83152 23.25 7.5V2.5C23.25 2.16848 23.1183 1.85054 22.8839 1.61612C22.6495 1.3817 22.3315 1.25 22 1.25H18C16.0772 1.25 14.2331 2.01384 12.8735 3.37348C11.5138 4.73311 10.75 6.57718 10.75 8.5V11.25H8C7.66848 11.25 7.35054 11.3817 7.11612 11.6161C6.8817 11.8505 6.75 12.1685 6.75 12.5V17.5C6.75 17.8315 6.8817 18.1495 7.11612 18.3839C7.35054 18.6183 7.66848 18.75 8 18.75H10.75V27.5C10.75 27.8315 10.8817 28.1495 11.1161 28.3839C11.3505 28.6183 11.6685 28.75 12 28.75H18C18.3315 28.75 18.6495 28.6183 18.8839 28.3839C19.1183 28.1495 19.25 27.8315 19.25 27.5V18.75H21C21.2503 18.7502 21.495 18.6753 21.7023 18.5349C21.9095 18.3945 22.0699 18.1951 22.1625 17.9625L24.1625 12.9625C24.238 12.7732 24.2661 12.5684 24.2443 12.3657C24.2225 12.1631 24.1515 11.9689 24.0375 11.8V11.8ZM20.15 16.25H18C17.6685 16.25 17.3505 16.3817 17.1161 16.6161C16.8817 16.8505 16.75 17.1685 16.75 17.5V26.25H13.25V17.5C13.25 17.1685 13.1183 16.8505 12.8839 16.6161C12.6495 16.3817 12.3315 16.25 12 16.25H9.25V13.75H12C12.3315 13.75 12.6495 13.6183 12.8839 13.3839C13.1183 13.1495 13.25 12.8315 13.25 12.5V8.5C13.2533 7.24124 13.7548 6.03497 14.6449 5.14489C15.535 4.2548 16.7412 3.7533 18 3.75H20.75V6.25H19.75C19.3268 6.18834 18.8954 6.21422 18.4826 6.32602C18.0697 6.43783 17.6843 6.63319 17.35 6.9C17.1471 7.11237 16.9894 7.36362 16.8863 7.63861C16.7832 7.91359 16.7368 8.20661 16.75 8.5V12.5C16.75 12.8315 16.8817 13.1495 17.1161 13.3839C17.3505 13.6183 17.6685 13.75 18 13.75H21.15L20.15 16.25Z" fill="#1D1D1B"/>
</svg>
