<svg width="31" height="30" viewBox="0 0 31 30" fill="none" xmlns="http://www.w3.org/2000/svg">
<path d="M15.5 8.75C14.2639 8.75 13.0555 9.11656 12.0277 9.80331C10.9999 10.4901 10.1988 11.4662 9.72575 12.6082C9.25271 13.7503 9.12893 15.0069 9.37009 16.2193C9.61125 17.4317 10.2065 18.5453 11.0806 19.4194C11.9547 20.2935 13.0683 20.8888 14.2807 21.1299C15.4931 21.3711 16.7497 21.2473 17.8918 20.7742C19.0338 20.3012 20.0099 19.5001 20.6967 18.4723C21.3834 17.4445 21.75 16.2361 21.75 15C21.75 13.3424 21.0915 11.7527 19.9194 10.5806C18.7473 9.40848 17.1576 8.75 15.5 8.75V8.75ZM15.5 18.75C14.7583 18.75 14.0333 18.5301 13.4166 18.118C12.7999 17.706 12.3193 17.1203 12.0355 16.4351C11.7516 15.7498 11.6774 14.9958 11.8221 14.2684C11.9667 13.541 12.3239 12.8728 12.8483 12.3483C13.3728 11.8239 14.041 11.4667 14.7684 11.3221C15.4958 11.1774 16.2498 11.2516 16.9351 11.5355C17.6203 11.8193 18.206 12.2999 18.618 12.9166C19.0301 13.5333 19.25 14.2583 19.25 15C19.25 15.9946 18.8549 16.9484 18.1517 17.6517C17.4484 18.3549 16.4946 18.75 15.5 18.75ZM21.75 7.5C21.5028 7.5 21.2611 7.57331 21.0555 7.71066C20.85 7.84801 20.6898 8.04324 20.5952 8.27165C20.5005 8.50005 20.4758 8.75139 20.524 8.99386C20.5722 9.23634 20.6913 9.45907 20.8661 9.63388C21.0409 9.8087 21.2637 9.92775 21.5061 9.97598C21.7486 10.0242 21.9999 9.99946 22.2284 9.90485C22.4568 9.81024 22.652 9.65002 22.7893 9.44446C22.9267 9.2389 23 8.99723 23 8.75C23 8.41848 22.8683 8.10054 22.6339 7.86612C22.3995 7.6317 22.0815 7.5 21.75 7.5ZM27.925 10.3C27.9043 9.23178 27.7014 8.17493 27.325 7.175C26.976 6.26508 26.4395 5.43874 25.7504 4.74962C25.0613 4.06051 24.2349 3.52402 23.325 3.175C22.3251 2.79862 21.2682 2.59571 20.2 2.575C18.9875 2.5 18.5875 2.5 15.5 2.5C12.4125 2.5 12.0125 2.5 10.8 2.575C9.73178 2.59571 8.67493 2.79862 7.675 3.175C6.76508 3.52402 5.93874 4.06051 5.24962 4.74962C4.56051 5.43874 4.02402 6.26508 3.675 7.175C3.29862 8.17493 3.09571 9.23178 3.075 10.3C3 11.525 3 11.925 3 15C3 18.075 3 18.475 3.075 19.7C3.09571 20.7682 3.29862 21.8251 3.675 22.825C4.02402 23.7349 4.56051 24.5613 5.24962 25.2504C5.93874 25.9395 6.76508 26.476 7.675 26.825C8.67493 27.2014 9.73178 27.4043 10.8 27.425C12.05 27.425 12.4125 27.5 15.5 27.5C18.5875 27.5 18.9875 27.5 20.2 27.425C21.2682 27.4043 22.3251 27.2014 23.325 26.825C24.2349 26.476 25.0613 25.9395 25.7504 25.2504C26.4395 24.5613 26.976 23.7349 27.325 22.825C27.7014 21.8251 27.9043 20.7682 27.925 19.7C27.925 18.45 28 18.075 28 15C28 11.925 28 11.525 27.925 10.3ZM25.425 19.5875C25.4031 20.3808 25.2554 21.1655 24.9875 21.9125C24.766 22.5029 24.4159 23.0367 23.9625 23.475C23.5268 23.9286 22.992 24.2751 22.4 24.4875C21.6513 24.7664 20.8613 24.9185 20.0625 24.9375C18.8875 24.9375 18.525 25 15.4875 25C12.45 25 12.1 25 10.925 25C10.1275 24.9794 9.33844 24.8317 8.5875 24.5625C7.99707 24.341 7.46334 23.9909 7.025 23.5375C6.57144 23.1018 6.2249 22.567 6.0125 21.975C5.73476 21.2303 5.58269 20.4446 5.5625 19.65C5.5625 18.4 5.5625 18.0875 5.5625 15.0625C5.5625 12.0375 5.5625 11.675 5.5625 10.475C5.58405 9.67651 5.73605 8.88692 6.0125 8.1375C6.2282 7.55079 6.57442 7.02078 7.025 6.5875C7.46072 6.13394 7.99551 5.7874 8.5875 5.575C9.33624 5.29612 10.1262 5.14403 10.925 5.125C12.1 5 12.4625 5 15.5 5C18.5375 5 18.9 5 20.075 5C20.8777 5.02041 21.6716 5.17243 22.425 5.45C23.0117 5.6657 23.5417 6.01192 23.975 6.4625C24.4286 6.89822 24.7751 7.43301 24.9875 8.025C25.2935 8.7857 25.4668 9.59323 25.5 10.4125C25.5 11.6625 25.5625 11.975 25.5625 15C25.5625 18.025 25.5 18.3875 25.5 19.5875H25.425Z" fill="#1D1D1B"/>
</svg>
