<svg width="31" height="30" viewBox="0 0 31 30" fill="none" xmlns="http://www.w3.org/2000/svg">
<path d="M29.239 4.93776C29.2392 4.71697 29.1808 4.50008 29.0699 4.30919C28.9589 4.1183 28.7994 3.96022 28.6074 3.85105C28.4155 3.74188 28.1981 3.68552 27.9773 3.68771C27.7566 3.68991 27.5403 3.75057 27.3506 3.86353C26.619 4.29901 25.8313 4.63251 25.0093 4.85478C23.8356 3.84757 22.3385 3.29641 20.7918 3.30204C19.0951 3.304 17.4655 3.96529 16.2471 5.14627C15.0288 6.32726 14.3171 7.9355 14.2623 9.63139C10.9173 9.09797 7.8856 7.35205 5.74537 4.72657C5.61642 4.57011 5.45173 4.44696 5.2652 4.3675C5.07867 4.28804 4.87576 4.2546 4.6736 4.27001C4.47155 4.28664 4.27659 4.35225 4.10559 4.46115C3.93458 4.57004 3.79268 4.71896 3.69215 4.89501C3.17656 5.79477 2.88044 6.80345 2.82783 7.83914C2.77523 8.87483 2.96763 9.90832 3.38941 10.8557L3.38697 10.8581C3.19741 10.9749 3.04096 11.1383 2.9326 11.3328C2.82425 11.5273 2.7676 11.7463 2.76807 11.969C2.76578 12.1526 2.77679 12.3362 2.80103 12.5183C2.92871 14.0911 3.62576 15.5634 4.76148 16.6589C4.68444 16.8057 4.63742 16.9664 4.62316 17.1315C4.60891 17.2967 4.62771 17.463 4.67847 17.6208C5.17362 19.1635 6.2266 20.4659 7.63136 21.2732C6.20416 21.8251 4.66313 22.0175 3.14405 21.8335C2.86289 21.7982 2.57808 21.8595 2.33636 22.0074C2.09463 22.1552 1.91033 22.3809 1.81369 22.6472C1.71705 22.9136 1.71381 23.2049 1.8045 23.4734C1.89519 23.7419 2.07442 23.9715 2.3128 24.1247C4.92542 25.8074 7.96739 26.7021 11.075 26.7017C14.5991 26.7413 18.0375 25.6152 20.8553 23.4985C23.6731 21.3818 25.7125 18.3931 26.656 14.9975C27.0973 13.5183 27.3227 11.9831 27.325 10.4395C27.325 10.3577 27.325 10.2734 27.3238 10.1892C27.9764 9.48538 28.482 8.65835 28.8109 7.75659C29.1397 6.85483 29.2853 5.8965 29.239 4.93776V4.93776ZM25.1057 8.95264C24.8993 9.19683 24.7948 9.51114 24.814 9.83033C24.8262 10.0366 24.825 10.2441 24.825 10.4395C24.8224 11.7439 24.6312 13.0411 24.2573 14.2908C23.4867 17.18 21.7688 19.7271 19.3787 21.524C16.9886 23.321 14.0646 24.2639 11.075 24.2017C10.0011 24.202 8.93091 24.0758 7.88654 23.8257C9.2183 23.3965 10.4635 22.7348 11.5645 21.8713C11.7673 21.7117 11.9157 21.4932 11.9894 21.2458C12.063 20.9985 12.0584 20.7344 11.976 20.4898C11.8936 20.2452 11.7375 20.0321 11.5292 19.8797C11.3209 19.7273 11.0706 19.6431 10.8125 19.6387C9.77355 19.6225 8.78142 19.2037 8.04517 18.4705C8.23195 18.4351 8.4175 18.3911 8.60182 18.3386C8.87184 18.2618 9.10813 18.0963 9.27265 17.8688C9.43717 17.6413 9.52035 17.3651 9.50879 17.0846C9.49723 16.8041 9.39161 16.5356 9.20893 16.3225C9.02625 16.1093 8.77714 15.9638 8.50172 15.9094C7.89864 15.7903 7.33115 15.5338 6.84337 15.1597C6.35558 14.7856 5.96063 14.304 5.68922 13.7524C5.91513 13.7833 6.14249 13.8024 6.37037 13.8098C6.6411 13.8139 6.90612 13.7318 7.12709 13.5753C7.34807 13.4189 7.51356 13.1962 7.59962 12.9395C7.6821 12.6804 7.67785 12.4015 7.58753 12.1451C7.49722 11.8887 7.32575 11.6687 7.09914 11.5186C6.54932 11.1523 6.09894 10.6553 5.78833 10.0723C5.47772 9.48917 5.31658 8.83815 5.31935 8.17751C5.31935 8.09451 5.32178 8.01149 5.32667 7.92971C8.12825 10.5425 11.7621 12.0828 15.5879 12.2791C15.781 12.2867 15.9734 12.2503 16.1504 12.1727C16.3274 12.0951 16.4844 11.9783 16.6097 11.8311C16.7336 11.6824 16.8214 11.5071 16.8661 11.3188C16.9108 11.1305 16.9111 10.9343 16.8672 10.7459C16.7957 10.4476 16.7592 10.142 16.7585 9.83522C16.7597 8.76589 17.185 7.74068 17.9411 6.98455C18.6972 6.22842 19.7224 5.80314 20.7918 5.80201C21.3419 5.80053 21.8864 5.91313 22.3909 6.13269C22.8953 6.35225 23.3488 6.674 23.7227 7.07764C23.8668 7.23275 24.0483 7.34839 24.2498 7.41356C24.4513 7.47874 24.6661 7.49129 24.8738 7.45001C25.3872 7.35008 25.8934 7.2155 26.3887 7.04718C26.0508 7.7384 25.6191 8.37962 25.1057 8.95264V8.95264Z" fill="#1D1D1B"/>
</svg>
