<svg width="147" height="147" viewBox="0 0 147 147" fill="none" xmlns="http://www.w3.org/2000/svg">
<path d="M75.0312 18.375H71.9688C42.385 18.375 18.375 42.4462 18.375 71.9688V111.781C18.375 121.091 25.9088 128.625 35.2188 128.625H50.5312C53.0425 128.625 55.125 126.543 55.125 124.031V96.4688C55.125 87.1588 47.5912 79.625 38.2812 79.625H35.2188C32.4625 79.625 29.8287 80.2988 27.5625 81.4625V71.9688C27.5625 47.4688 47.4688 27.5625 71.9688 27.5625H75.0312C99.5312 27.5625 119.438 47.4688 119.438 71.9688V81.4625C117.171 80.2988 114.537 79.625 111.781 79.625H108.719C99.4088 79.625 91.875 87.1588 91.875 96.4688V124.031C91.875 126.543 93.9575 128.625 96.4688 128.625H111.781C121.091 128.625 128.625 121.091 128.625 111.781V71.9688C128.625 42.4462 104.615 18.375 75.0312 18.375ZM35.2188 88.8125H38.2812C42.5075 88.8125 45.9375 92.2425 45.9375 96.4688V119.438H35.2188C30.9925 119.438 27.5625 116.007 27.5625 111.781V96.4688C27.5625 92.2425 30.9925 88.8125 35.2188 88.8125ZM119.438 111.781C119.438 116.007 116.007 119.438 111.781 119.438H101.062V96.4688C101.062 92.2425 104.493 88.8125 108.719 88.8125H111.781C116.007 88.8125 119.438 92.2425 119.438 96.4688V111.781Z" fill="white"/>
</svg>
