<svg width="351" height="52" viewBox="0 0 351 52" fill="none" xmlns="http://www.w3.org/2000/svg">
<path d="M200.378 1H150.53V51H200.378V1Z" fill="white" stroke="white" stroke-miterlimit="10"/>
<path d="M159.163 1C161.087 1 162.892 1.20512 164.573 1.61836C166.254 2.03161 167.725 2.74952 168.98 3.77509C170.236 4.80067 171.223 6.19426 171.944 7.95282C172.664 9.71139 173.023 11.9284 173.023 14.604C173.023 19.2282 171.889 22.6427 169.619 24.8447C167.348 27.0467 163.935 28.1477 159.375 28.1477H150.53V1H159.163ZM158.524 8.3902V20.6971H158.828C159.822 20.6971 160.707 20.6066 161.488 20.4257C162.269 20.2447 162.926 19.9219 163.464 19.4604C164.002 18.9989 164.406 18.3745 164.679 17.5902C164.953 16.806 165.09 15.8106 165.09 14.604C165.09 13.2768 164.932 12.206 164.619 11.3915C164.305 10.5771 163.868 9.94968 163.312 9.50627C162.755 9.06286 162.102 8.76725 161.351 8.61643C160.6 8.46561 159.801 8.3902 158.95 8.3902H158.524V8.3902Z" fill="#1D1D1B"/>
<path d="M191.746 51C189.822 51 188.017 50.7949 186.336 50.3816C184.655 49.9684 183.184 49.2505 181.929 48.2249C180.673 47.1993 179.685 45.8057 178.965 44.0472C178.245 42.2886 177.886 40.0715 177.886 37.396C177.886 32.7718 179.02 29.3572 181.29 27.1553C183.561 24.9533 186.974 23.8523 191.533 23.8523H200.378V51H191.746ZM192.384 43.6098V31.3028H192.081C191.087 31.3028 190.202 31.3933 189.421 31.5743C188.64 31.7553 187.983 32.078 187.445 32.5396C186.907 33.0011 186.503 33.6255 186.229 34.4097C185.956 35.194 185.819 36.1894 185.819 37.396C185.819 38.7232 185.977 39.794 186.29 40.6084C186.603 41.4229 187.041 42.0503 187.597 42.4937C188.153 42.9371 188.807 43.2327 189.558 43.3835C190.308 43.5344 191.108 43.6098 191.959 43.6098H192.384V43.6098Z" fill="#1D1D1B"/>
<path d="M200.5 9.5666C200.5 11.476 200.293 13.2677 199.877 14.9358C199.461 16.6039 198.737 18.0638 197.704 19.3096C196.67 20.5554 195.266 21.5357 193.494 22.2506C191.722 22.9655 189.488 23.3214 186.792 23.3214C182.132 23.3214 178.692 22.1963 176.473 19.943C174.254 17.6898 173.144 14.3024 173.144 9.77775V1H200.5V9.5666V9.5666ZM193.053 8.93315H180.652V9.23479C180.652 10.2212 180.743 11.0989 180.926 11.8742C181.108 12.6494 181.433 13.3009 181.898 13.8348C182.363 14.3687 182.992 14.7699 183.783 15.0414C184.573 15.3129 185.576 15.4486 186.792 15.4486C188.129 15.4486 189.208 15.2917 190.029 14.9811C190.85 14.6673 191.482 14.236 191.929 13.684C192.375 13.132 192.673 12.4835 192.825 11.7384C192.977 10.9934 193.053 10.2 193.053 9.35545V8.93315V8.93315Z" fill="#1D1D1B"/>
<path d="M150.5 42.4333C150.5 40.5239 150.707 38.7322 151.123 37.0641C151.54 35.396 152.263 33.9361 153.296 32.6903C154.33 31.4445 155.734 30.4642 157.506 29.7493C159.278 29.0344 161.512 28.6785 164.208 28.6785C168.868 28.6785 172.308 29.8036 174.527 32.0568C176.746 34.3101 177.856 37.6975 177.856 42.2221V50.9999H150.5V42.4333V42.4333ZM157.947 43.0667H170.348V42.7651C170.348 41.7787 170.257 40.901 170.074 40.1257C169.892 39.3505 169.567 38.699 169.102 38.1651C168.637 37.6312 168.008 37.23 167.217 36.9585C166.427 36.687 165.424 36.5513 164.208 36.5513C162.871 36.5513 161.792 36.7081 160.971 37.0188C160.15 37.3295 159.518 37.7639 159.071 38.3159C158.625 38.8679 158.327 39.5164 158.175 40.2615C158.023 41.0065 157.947 41.7998 157.947 42.6444V43.0667V43.0667Z" fill="#1D1D1B"/>
<path d="M100.378 1H50.5304V51H100.378V1Z" fill="white" stroke="white" stroke-miterlimit="10"/>
<path d="M59.1626 1C61.0866 1 62.8921 1.20512 64.5729 1.61836C66.2538 2.03161 67.7249 2.74952 68.9802 3.77509C70.2356 4.80067 71.2234 6.19426 71.9438 7.95282C72.6641 9.71139 73.0228 11.9284 73.0228 14.604C73.0228 19.2282 71.889 22.6427 69.6185 24.8447C67.348 27.0467 63.9346 28.1477 59.3754 28.1477H50.5304V1H59.1626ZM58.5243 8.3902V20.6971H58.8283C59.8222 20.6971 60.7067 20.6066 61.4878 20.4257C62.269 20.2447 62.9255 19.9219 63.4635 19.4604C64.0015 18.9989 64.4058 18.3745 64.6793 17.5902C64.9529 16.806 65.0897 15.8106 65.0897 14.604C65.0897 13.2768 64.9316 12.206 64.6185 11.3915C64.3055 10.5771 63.8678 9.94968 63.3115 9.50627C62.7553 9.06286 62.1018 8.76725 61.3511 8.61643C60.6003 8.46561 59.8009 8.3902 58.9498 8.3902H58.5243V8.3902Z" fill="#1D1D1B"/>
<path d="M91.7462 51C89.8221 51 88.0167 50.7949 86.3358 50.3816C84.655 49.9684 83.1839 49.2505 81.9285 48.2249C80.6732 47.1993 79.6854 45.8057 78.965 44.0472C78.2446 42.2886 77.886 40.0715 77.886 37.396C77.886 32.7718 79.0197 29.3572 81.2902 27.1553C83.5608 24.9533 86.9741 23.8523 91.5334 23.8523H100.378V51H91.7462ZM92.3845 43.6098V31.3028H92.0805C91.0866 31.3028 90.2021 31.3933 89.4209 31.5743C88.6398 31.7553 87.9832 32.078 87.4453 32.5396C86.9073 33.0011 86.503 33.6255 86.2294 34.4097C85.9559 35.194 85.8191 36.1894 85.8191 37.396C85.8191 38.7232 85.9772 39.794 86.2902 40.6084C86.6033 41.4229 87.041 42.0503 87.5972 42.4937C88.1535 42.9371 88.8069 43.2327 89.5577 43.3835C90.3085 43.5344 91.1079 43.6098 91.9589 43.6098H92.3845V43.6098Z" fill="#1D1D1B"/>
<path d="M100.5 9.5666C100.5 11.476 100.293 13.2677 99.8769 14.9358C99.4605 16.6039 98.7371 18.0638 97.7037 19.3096C96.6702 20.5554 95.266 21.5357 93.4939 22.2506C91.7219 22.9655 89.4879 23.3214 86.7918 23.3214C82.1322 23.3214 78.6915 22.1963 76.4727 19.943C74.2538 17.6898 73.1444 14.3024 73.1444 9.77775V1H100.5V9.5666V9.5666ZM93.0532 8.93315H80.652V9.23479C80.652 10.2212 80.7432 11.0989 80.9256 11.8742C81.1079 12.6494 81.4332 13.3009 81.8982 13.8348C82.3633 14.3687 82.9924 14.7699 83.7827 15.0414C84.573 15.3129 85.576 15.4486 86.7918 15.4486C88.1292 15.4486 89.2082 15.2917 90.0289 14.9811C90.8496 14.6673 91.4818 14.236 91.9286 13.684C92.3754 13.132 92.6733 12.4835 92.8252 11.7384C92.9772 10.9934 93.0532 10.2 93.0532 9.35545V8.93315V8.93315Z" fill="#1D1D1B"/>
<path d="M50.5 42.4333C50.5 40.5239 50.7067 38.7322 51.1231 37.0641C51.5395 35.396 52.2629 33.9361 53.2964 32.6903C54.3298 31.4445 55.734 30.4642 57.5061 29.7493C59.2781 29.0344 61.5121 28.6785 64.2082 28.6785C68.8678 28.6785 72.3085 29.8036 74.5273 32.0568C76.7462 34.3101 77.8556 37.6975 77.8556 42.2221V50.9999H50.5V42.4333V42.4333ZM57.9468 43.0667H70.348V42.7651C70.348 41.7787 70.2568 40.901 70.0744 40.1257C69.8921 39.3505 69.5668 38.699 69.1018 38.1651C68.6368 37.6312 68.0076 37.23 67.2173 36.9585C66.427 36.687 65.424 36.5513 64.2082 36.5513C62.8708 36.5513 61.7918 36.7081 60.9711 37.0188C60.1504 37.3295 59.5182 37.7639 59.0714 38.3159C58.6246 38.8679 58.3267 39.5164 58.1748 40.2615C58.0228 41.0065 57.9468 41.7998 57.9468 42.6444V43.0667V43.0667Z" fill="#1D1D1B"/>
<path d="M250.378 1H200.53V51H250.378V1Z" fill="#1D1D1B" stroke="white" stroke-miterlimit="10"/>
<path d="M200.5 42.4333C200.5 40.5239 200.707 38.7322 201.123 37.0641C201.54 35.396 202.263 33.9361 203.296 32.6903C204.33 31.4445 205.734 30.4642 207.506 29.7493C209.278 29.0344 211.512 28.6785 214.208 28.6785C218.868 28.6785 222.309 29.8036 224.527 32.0568C226.746 34.3101 227.856 37.6975 227.856 42.2221V50.9999H200.5V42.4333V42.4333ZM207.947 43.0667H220.348V42.7651C220.348 41.7787 220.257 40.901 220.074 40.1257C219.892 39.3505 219.567 38.699 219.102 38.1651C218.637 37.6312 218.008 37.23 217.217 36.9585C216.427 36.687 215.424 36.5513 214.208 36.5513C212.871 36.5513 211.792 36.7082 210.971 37.0188C210.15 37.3295 209.518 37.7639 209.071 38.3159C208.625 38.8679 208.327 39.5164 208.175 40.2615C208.023 41.0065 207.947 41.7999 207.947 42.6444V43.0667V43.0667Z" fill="white"/>
<path d="M250.5 9.5666C250.5 11.476 250.293 13.2677 249.877 14.9358C249.46 16.6039 248.737 18.0638 247.704 19.3096C246.67 20.5554 245.266 21.5357 243.494 22.2506C241.722 22.9655 239.488 23.3214 236.792 23.3214C232.132 23.3214 228.691 22.1963 226.473 19.9431C224.254 17.6898 223.144 14.3024 223.144 9.77775V1H250.5V9.5666V9.5666ZM243.053 8.93316H230.652V9.2348C230.652 10.2212 230.743 11.0989 230.926 11.8742C231.108 12.6494 231.433 13.3009 231.898 13.8348C232.363 14.3687 232.992 14.7699 233.783 15.0414C234.573 15.3129 235.576 15.4486 236.792 15.4486C238.129 15.4486 239.208 15.2917 240.029 14.9811C240.85 14.6673 241.482 14.236 241.929 13.684C242.375 13.132 242.673 12.4835 242.825 11.7384C242.977 10.9934 243.053 10.2 243.053 9.35545V8.93316V8.93316Z" fill="white"/>
<path d="M241.746 51C239.822 51 238.017 50.7949 236.336 50.3816C234.655 49.9684 233.184 49.2505 231.929 48.2249C230.673 47.1993 229.685 45.8057 228.965 44.0472C228.245 42.2886 227.886 40.0715 227.886 37.396C227.886 32.7718 229.02 29.3572 231.29 27.1553C233.561 24.9533 236.974 23.8523 241.533 23.8523H250.378V51H241.746V51ZM242.384 43.6098V31.3028H242.081C241.087 31.3028 240.202 31.3933 239.421 31.5743C238.64 31.7553 237.983 32.078 237.445 32.5396C236.907 33.0011 236.503 33.6255 236.229 34.4097C235.956 35.194 235.819 36.1894 235.819 37.396C235.819 38.7232 235.977 39.794 236.29 40.6085C236.603 41.4229 237.041 42.0503 237.597 42.4937C238.153 42.9371 238.807 43.2327 239.558 43.3835C240.308 43.5344 241.108 43.6098 241.959 43.6098H242.384V43.6098Z" fill="white"/>
<path d="M209.163 1C211.087 1 212.892 1.20512 214.573 1.61836C216.254 2.03161 217.725 2.74952 218.98 3.7751C220.236 4.80067 221.223 6.19426 221.944 7.95282C222.664 9.71139 223.023 11.9284 223.023 14.604C223.023 19.2282 221.889 22.6427 219.619 24.8447C217.348 27.0467 213.935 28.1477 209.375 28.1477H200.53V1H209.163ZM208.524 8.3902V20.6972H208.828C209.822 20.6972 210.707 20.6067 211.488 20.4257C212.269 20.2447 212.926 19.9219 213.464 19.4604C214.002 18.9989 214.406 18.3745 214.679 17.5902C214.953 16.806 215.09 15.8106 215.09 14.604C215.09 13.2768 214.932 12.206 214.619 11.3915C214.305 10.5771 213.868 9.94968 213.312 9.50627C212.755 9.06286 212.102 8.76725 211.351 8.61643C210.6 8.46561 209.801 8.3902 208.95 8.3902H208.524V8.3902Z" fill="white"/>
<path d="M350.378 1H300.53V51H350.378V1Z" fill="#1D1D1B" stroke="white" stroke-miterlimit="10"/>
<path d="M300.5 42.4333C300.5 40.5239 300.707 38.7322 301.123 37.0641C301.54 35.396 302.263 33.9361 303.296 32.6903C304.33 31.4445 305.734 30.4642 307.506 29.7493C309.278 29.0344 311.512 28.6785 314.208 28.6785C318.868 28.6785 322.309 29.8036 324.527 32.0568C326.746 34.3101 327.856 37.6975 327.856 42.2221V50.9999H300.5V42.4333V42.4333ZM307.947 43.0667H320.348V42.7651C320.348 41.7787 320.257 40.901 320.074 40.1257C319.892 39.3505 319.567 38.699 319.102 38.1651C318.637 37.6312 318.008 37.23 317.217 36.9585C316.427 36.687 315.424 36.5513 314.208 36.5513C312.871 36.5513 311.792 36.7082 310.971 37.0188C310.15 37.3295 309.518 37.7639 309.071 38.3159C308.625 38.8679 308.327 39.5164 308.175 40.2615C308.023 41.0065 307.947 41.7999 307.947 42.6444V43.0667V43.0667Z" fill="white"/>
<path d="M350.5 9.5666C350.5 11.476 350.293 13.2677 349.877 14.9358C349.46 16.6039 348.737 18.0638 347.704 19.3096C346.67 20.5554 345.266 21.5357 343.494 22.2506C341.722 22.9655 339.488 23.3214 336.792 23.3214C332.132 23.3214 328.691 22.1963 326.473 19.9431C324.254 17.6898 323.144 14.3024 323.144 9.77775V1H350.5V9.5666V9.5666ZM343.053 8.93316H330.652V9.2348C330.652 10.2212 330.743 11.0989 330.926 11.8742C331.108 12.6494 331.433 13.3009 331.898 13.8348C332.363 14.3687 332.992 14.7699 333.783 15.0414C334.573 15.3129 335.576 15.4486 336.792 15.4486C338.129 15.4486 339.208 15.2917 340.029 14.9811C340.85 14.6673 341.482 14.236 341.929 13.684C342.375 13.132 342.673 12.4835 342.825 11.7384C342.977 10.9934 343.053 10.2 343.053 9.35545V8.93316V8.93316Z" fill="white"/>
<path d="M341.746 51C339.822 51 338.017 50.7949 336.336 50.3816C334.655 49.9684 333.184 49.2505 331.929 48.2249C330.673 47.1993 329.685 45.8057 328.965 44.0472C328.245 42.2886 327.886 40.0715 327.886 37.396C327.886 32.7718 329.02 29.3572 331.29 27.1553C333.561 24.9533 336.974 23.8523 341.533 23.8523H350.378V51H341.746V51ZM342.384 43.6098V31.3028H342.081C341.087 31.3028 340.202 31.3933 339.421 31.5743C338.64 31.7553 337.983 32.078 337.445 32.5396C336.907 33.0011 336.503 33.6255 336.229 34.4097C335.956 35.194 335.819 36.1894 335.819 37.396C335.819 38.7232 335.977 39.794 336.29 40.6085C336.603 41.4229 337.041 42.0503 337.597 42.4937C338.153 42.9371 338.807 43.2327 339.558 43.3835C340.308 43.5344 341.108 43.6098 341.959 43.6098H342.384V43.6098Z" fill="white"/>
<path d="M309.163 1C311.087 1 312.892 1.20512 314.573 1.61836C316.254 2.03161 317.725 2.74952 318.98 3.7751C320.236 4.80067 321.223 6.19426 321.944 7.95282C322.664 9.71139 323.023 11.9284 323.023 14.604C323.023 19.2282 321.889 22.6427 319.619 24.8447C317.348 27.0467 313.935 28.1477 309.375 28.1477H300.53V1H309.163ZM308.524 8.3902V20.6972H308.828C309.822 20.6972 310.707 20.6067 311.488 20.4257C312.269 20.2447 312.926 19.9219 313.464 19.4604C314.002 18.9989 314.406 18.3745 314.679 17.5902C314.953 16.806 315.09 15.8106 315.09 14.604C315.09 13.2768 314.932 12.206 314.619 11.3915C314.305 10.5771 313.868 9.94968 313.312 9.50627C312.755 9.06286 312.102 8.76725 311.351 8.61643C310.6 8.46561 309.801 8.3902 308.95 8.3902H308.524V8.3902Z" fill="white"/>
<path d="M150.378 1H100.53V51H150.378V1Z" fill="#1D1D1B" stroke="white" stroke-miterlimit="10"/>
<path d="M100.5 42.4333C100.5 40.5239 100.707 38.7322 101.123 37.0641C101.54 35.396 102.263 33.9361 103.296 32.6903C104.33 31.4445 105.734 30.4642 107.506 29.7493C109.278 29.0344 111.512 28.6785 114.208 28.6785C118.868 28.6785 122.309 29.8036 124.527 32.0568C126.746 34.3101 127.856 37.6975 127.856 42.2221V50.9999H100.5V42.4333V42.4333ZM107.947 43.0667H120.348V42.7651C120.348 41.7787 120.257 40.901 120.074 40.1257C119.892 39.3505 119.567 38.699 119.102 38.1651C118.637 37.6312 118.008 37.23 117.217 36.9585C116.427 36.687 115.424 36.5513 114.208 36.5513C112.871 36.5513 111.792 36.7082 110.971 37.0188C110.15 37.3295 109.518 37.7639 109.071 38.3159C108.625 38.8679 108.327 39.5164 108.175 40.2615C108.023 41.0065 107.947 41.7999 107.947 42.6444V43.0667V43.0667Z" fill="white"/>
<path d="M150.5 9.5666C150.5 11.476 150.293 13.2677 149.877 14.9358C149.46 16.6039 148.737 18.0638 147.704 19.3096C146.67 20.5554 145.266 21.5357 143.494 22.2506C141.722 22.9655 139.488 23.3214 136.792 23.3214C132.132 23.3214 128.691 22.1963 126.473 19.9431C124.254 17.6898 123.144 14.3024 123.144 9.77775V1H150.5V9.5666V9.5666ZM143.053 8.93316H130.652V9.2348C130.652 10.2212 130.743 11.0989 130.926 11.8742C131.108 12.6494 131.433 13.3009 131.898 13.8348C132.363 14.3687 132.992 14.7699 133.783 15.0414C134.573 15.3129 135.576 15.4486 136.792 15.4486C138.129 15.4486 139.208 15.2917 140.029 14.9811C140.85 14.6673 141.482 14.236 141.929 13.684C142.375 13.132 142.673 12.4835 142.825 11.7384C142.977 10.9934 143.053 10.2 143.053 9.35545V8.93316V8.93316Z" fill="white"/>
<path d="M141.746 51C139.822 51 138.017 50.7949 136.336 50.3816C134.655 49.9684 133.184 49.2505 131.929 48.2249C130.673 47.1993 129.685 45.8057 128.965 44.0472C128.245 42.2886 127.886 40.0715 127.886 37.396C127.886 32.7718 129.02 29.3572 131.29 27.1553C133.561 24.9533 136.974 23.8523 141.533 23.8523H150.378V51H141.746V51ZM142.384 43.6098V31.3028H142.081C141.087 31.3028 140.202 31.3933 139.421 31.5743C138.64 31.7553 137.983 32.078 137.445 32.5396C136.907 33.0011 136.503 33.6255 136.229 34.4097C135.956 35.194 135.819 36.1894 135.819 37.396C135.819 38.7232 135.977 39.794 136.29 40.6085C136.603 41.4229 137.041 42.0503 137.597 42.4937C138.153 42.9371 138.807 43.2327 139.558 43.3835C140.308 43.5344 141.108 43.6098 141.959 43.6098H142.384V43.6098Z" fill="white"/>
<path d="M109.163 1C111.087 1 112.892 1.20512 114.573 1.61836C116.254 2.03161 117.725 2.74952 118.98 3.7751C120.236 4.80067 121.223 6.19426 121.944 7.95282C122.664 9.71139 123.023 11.9284 123.023 14.604C123.023 19.2282 121.889 22.6427 119.619 24.8447C117.348 27.0467 113.935 28.1477 109.375 28.1477H100.53V1H109.163ZM108.524 8.3902V20.6972H108.828C109.822 20.6972 110.707 20.6067 111.488 20.4257C112.269 20.2447 112.926 19.9219 113.464 19.4604C114.002 18.9989 114.406 18.3745 114.679 17.5902C114.953 16.806 115.09 15.8106 115.09 14.604C115.09 13.2768 114.932 12.206 114.619 11.3915C114.305 10.5771 113.868 9.94968 113.312 9.50627C112.755 9.06286 112.102 8.76725 111.351 8.61643C110.6 8.46561 109.801 8.3902 108.95 8.3902H108.524V8.3902Z" fill="white"/>
<path d="M50.3784 1H0.530396V51H50.3784V1Z" fill="#1D1D1B" stroke="white" stroke-miterlimit="10"/>
<path d="M0.5 42.4333C0.5 40.5239 0.706683 38.7322 1.1231 37.0641C1.53951 35.396 2.26292 33.9361 3.29636 32.6903C4.32979 31.4445 5.73404 30.4642 7.50607 29.7493C9.27811 29.0344 11.5122 28.6785 14.2082 28.6785C18.8678 28.6785 22.3085 29.8036 24.5274 32.0568C26.7462 34.3101 27.8556 37.6975 27.8556 42.2221V50.9999H0.5V42.4333V42.4333ZM7.94681 43.0667H20.348V42.7651C20.348 41.7787 20.2568 40.901 20.0745 40.1257C19.8921 39.3505 19.5669 38.699 19.1018 38.1651C18.6368 37.6312 18.0076 37.23 17.2173 36.9585C16.427 36.687 15.424 36.5513 14.2082 36.5513C12.8708 36.5513 11.7918 36.7082 10.9711 37.0188C10.1505 37.3295 9.51824 37.7639 9.07143 38.3159C8.62462 38.8679 8.32674 39.5164 8.17477 40.2615C8.02279 41.0065 7.94681 41.7999 7.94681 42.6444V43.0667V43.0667Z" fill="white"/>
<path d="M50.5 9.5666C50.5 11.476 50.2933 13.2677 49.8769 14.9358C49.4604 16.6039 48.7371 18.0638 47.7036 19.3096C46.6702 20.5554 45.2659 21.5357 43.4939 22.2506C41.7218 22.9655 39.4878 23.3214 36.7918 23.3214C32.1322 23.3214 28.6915 22.1963 26.4726 19.9431C24.2538 17.6898 23.1443 14.3024 23.1443 9.77775V1H50.5V9.5666V9.5666ZM43.0532 8.93316H30.6519V9.2348C30.6519 10.2212 30.7431 11.0989 30.9255 11.8742C31.1079 12.6494 31.4331 13.3009 31.8982 13.8348C32.3632 14.3687 32.9924 14.7699 33.7827 15.0414C34.5729 15.3129 35.576 15.4486 36.7918 15.4486C38.1291 15.4486 39.2082 15.2917 40.0288 14.9811C40.8495 14.6673 41.4817 14.236 41.9285 13.684C42.3754 13.132 42.6732 12.4835 42.8252 11.7384C42.9772 10.9934 43.0532 10.2 43.0532 9.35545V8.93316V8.93316Z" fill="white"/>
<path d="M41.7462 51C39.8222 51 38.0167 50.7949 36.3358 50.3816C34.655 49.9684 33.1839 49.2505 31.9285 48.2249C30.6732 47.1993 29.6854 45.8057 28.965 44.0472C28.2446 42.2886 27.886 40.0715 27.886 37.396C27.886 32.7718 29.0197 29.3572 31.2902 27.1553C33.5608 24.9533 36.9741 23.8523 41.5334 23.8523H50.3784V51H41.7462V51ZM42.3845 43.6098V31.3028H42.0805C41.0866 31.3028 40.2021 31.3933 39.4209 31.5743C38.6398 31.7553 37.9833 32.078 37.4453 32.5396C36.9073 33.0011 36.503 33.6255 36.2295 34.4097C35.9559 35.194 35.8191 36.1894 35.8191 37.396C35.8191 38.7232 35.9772 39.794 36.2903 40.6085C36.6033 41.4229 37.041 42.0503 37.5972 42.4937C38.1535 42.9371 38.807 43.2327 39.5577 43.3835C40.3085 43.5344 41.1079 43.6098 41.9589 43.6098H42.3845V43.6098Z" fill="white"/>
<path d="M9.16261 1C11.0866 1 12.8921 1.20512 14.5729 1.61836C16.2538 2.03161 17.7249 2.74952 18.9802 3.7751C20.2356 4.80067 21.2234 6.19426 21.9438 7.95282C22.6641 9.71139 23.0228 11.9284 23.0228 14.604C23.0228 19.2282 21.889 22.6427 19.6185 24.8447C17.348 27.0467 13.9346 28.1477 9.37538 28.1477H0.530396V1H9.16261ZM8.52431 8.3902V20.6972H8.82826C9.82218 20.6972 10.7067 20.6067 11.4878 20.4257C12.269 20.2447 12.9255 19.9219 13.4635 19.4604C14.0015 18.9989 14.4058 18.3745 14.6793 17.5902C14.9529 16.806 15.0897 15.8106 15.0897 14.604C15.0897 13.2768 14.9316 12.206 14.6185 11.3915C14.3055 10.5771 13.8678 9.94968 13.3115 9.50627C12.7553 9.06286 12.1018 8.76725 11.3511 8.61643C10.6003 8.46561 9.8009 8.3902 8.94984 8.3902H8.52431V8.3902Z" fill="white"/>
<path d="M300.378 1H250.53V51H300.378V1Z" fill="white" stroke="white" stroke-miterlimit="10"/>
<path d="M259.163 1C261.087 1 262.892 1.20512 264.573 1.61836C266.254 2.03161 267.725 2.74952 268.98 3.77509C270.236 4.80067 271.223 6.19426 271.944 7.95282C272.664 9.71139 273.023 11.9284 273.023 14.604C273.023 19.2282 271.889 22.6427 269.619 24.8447C267.348 27.0467 263.935 28.1477 259.375 28.1477H250.53V1H259.163ZM258.524 8.3902V20.6971H258.828C259.822 20.6971 260.707 20.6066 261.488 20.4257C262.269 20.2447 262.926 19.9219 263.464 19.4604C264.002 18.9989 264.406 18.3745 264.679 17.5902C264.953 16.806 265.09 15.8106 265.09 14.604C265.09 13.2768 264.932 12.206 264.619 11.3915C264.305 10.5771 263.868 9.94968 263.312 9.50627C262.755 9.06286 262.102 8.76725 261.351 8.61643C260.6 8.46561 259.801 8.3902 258.95 8.3902H258.524V8.3902Z" fill="#1D1D1B"/>
<path d="M291.746 51C289.822 51 288.017 50.7949 286.336 50.3816C284.655 49.9684 283.184 49.2505 281.929 48.2249C280.673 47.1993 279.685 45.8057 278.965 44.0472C278.245 42.2886 277.886 40.0715 277.886 37.396C277.886 32.7718 279.02 29.3572 281.29 27.1553C283.561 24.9533 286.974 23.8523 291.533 23.8523H300.378V51H291.746ZM292.384 43.6098V31.3028H292.081C291.087 31.3028 290.202 31.3933 289.421 31.5743C288.64 31.7553 287.983 32.078 287.445 32.5396C286.907 33.0011 286.503 33.6255 286.229 34.4097C285.956 35.194 285.819 36.1894 285.819 37.396C285.819 38.7232 285.977 39.794 286.29 40.6084C286.603 41.4229 287.041 42.0503 287.597 42.4937C288.153 42.9371 288.807 43.2327 289.558 43.3835C290.308 43.5344 291.108 43.6098 291.959 43.6098H292.384V43.6098Z" fill="#1D1D1B"/>
<path d="M300.5 9.5666C300.5 11.476 300.293 13.2677 299.877 14.9358C299.461 16.6039 298.737 18.0638 297.704 19.3096C296.67 20.5554 295.266 21.5357 293.494 22.2506C291.722 22.9655 289.488 23.3214 286.792 23.3214C282.132 23.3214 278.692 22.1963 276.473 19.943C274.254 17.6898 273.144 14.3024 273.144 9.77775V1H300.5V9.5666V9.5666ZM293.053 8.93315H280.652V9.23479C280.652 10.2212 280.743 11.0989 280.926 11.8742C281.108 12.6494 281.433 13.3009 281.898 13.8348C282.363 14.3687 282.992 14.7699 283.783 15.0414C284.573 15.3129 285.576 15.4486 286.792 15.4486C288.129 15.4486 289.208 15.2917 290.029 14.9811C290.85 14.6673 291.482 14.236 291.929 13.684C292.375 13.132 292.673 12.4835 292.825 11.7384C292.977 10.9934 293.053 10.2 293.053 9.35545V8.93315V8.93315Z" fill="#1D1D1B"/>
<path d="M250.5 42.4333C250.5 40.5239 250.707 38.7322 251.123 37.0641C251.54 35.396 252.263 33.9361 253.296 32.6903C254.33 31.4445 255.734 30.4642 257.506 29.7493C259.278 29.0344 261.512 28.6785 264.208 28.6785C268.868 28.6785 272.308 29.8036 274.527 32.0568C276.746 34.3101 277.856 37.6975 277.856 42.2221V50.9999H250.5V42.4333V42.4333ZM257.947 43.0667H270.348V42.7651C270.348 41.7787 270.257 40.901 270.074 40.1257C269.892 39.3505 269.567 38.699 269.102 38.1651C268.637 37.6312 268.008 37.23 267.217 36.9585C266.427 36.687 265.424 36.5513 264.208 36.5513C262.871 36.5513 261.792 36.7081 260.971 37.0188C260.15 37.3295 259.518 37.7639 259.071 38.3159C258.625 38.8679 258.327 39.5164 258.175 40.2615C258.023 41.0065 257.947 41.7998 257.947 42.6444V43.0667V43.0667Z" fill="#1D1D1B"/>
</svg>
